<?xml version="1.0" encoding="UTF-8" standalone="no"?>
<!-- Generator: Adobe Illustrator 16.0.0, SVG Export Plug-In . SVG Version: 6.00 Build 0)  -->

<svg
   xmlns:dc="http://purl.org/dc/elements/1.1/"
   xmlns:cc="http://creativecommons.org/ns#"
   xmlns:rdf="http://www.w3.org/1999/02/22-rdf-syntax-ns#"
   xmlns:svg="http://www.w3.org/2000/svg"
   xmlns="http://www.w3.org/2000/svg"
   xmlns:sodipodi="http://sodipodi.sourceforge.net/DTD/sodipodi-0.dtd"
   xmlns:inkscape="http://www.inkscape.org/namespaces/inkscape"
   version="1.1"
   id="svg12553"
   inkscape:version="0.92.2 (5c3e80d, 2017-08-06)"
   sodipodi:docname="breed.svg"
   x="0px"
   y="0px"
   width="624.3501"
   height="380.33334"
   viewBox="0 0 624.3501 380.33334"
   enable-background="new 0 0 330.5 380"
   xml:space="preserve"><metadata
     id="metadata2232"><rdf:RDF><cc:Work
         rdf:about=""><dc:format>image/svg+xml</dc:format><dc:type
           rdf:resource="http://purl.org/dc/dcmitype/StillImage" /></cc:Work></rdf:RDF></metadata><defs
     id="defs2230" /><path
     id="path33453"
     inkscape:connector-curvature="0"
     d="M 0,0 H 624.35008 V 380.33334 H 0 Z"
     style="fill:#e6e6e6;stroke-width:1.37720382" /><path
     id="path35809_1_"
     inkscape:connector-curvature="0"
     stroke-miterlimit="10"
     d="M 68.698,69.61 V 97.75"
     style="fill:none;stroke:#616162;stroke-width:1.24600005;stroke-linecap:round;stroke-linejoin:round;stroke-miterlimit:10" /><rect
     x="52.139"
     y="83.68"
     width="36.342999"
     height="12.002"
     id="rect2034"
     style="fill:#e6e6e6" /><sodipodi:namedview
     id="base"
     pagecolor="#ffffff"
     bordercolor="#666666"
     borderopacity="1.0"
     inkscape:zoom="3.0083005"
     inkscape:cx="253.04707"
     inkscape:cy="179.99219"
     showgrid="true"
     fit-margin-top="0"
     fit-margin-left="0"
     units="px"
     inkscape:pageshadow="2"
     fit-margin-bottom="0"
     fit-margin-right="0"
     inkscape:pageopacity="0.0"
     inkscape:document-units="mm"
     inkscape:window-y="222"
     inkscape:window-maximized="0"
     inkscape:current-layer="svg12553"
     inkscape:window-width="2443"
     inkscape:window-x="1045"
     inkscape:window-height="1576"><inkscape:grid
       originx="-20.649917"
       originy="85"
       id="grid12870"
       type="xygrid" /></sodipodi:namedview><path
     id="path35727"
     inkscape:connector-curvature="0"
     stroke-miterlimit="10"
     d="m 20.718,204.828 v 43.453"
     style="fill:none;stroke:#616162;stroke-width:1.15999997;stroke-linecap:round;stroke-linejoin:round;stroke-miterlimit:10" /><path
     id="path35729"
     inkscape:connector-curvature="0"
     stroke-miterlimit="10"
     d="m 58.718,204.828 v 43.453"
     style="fill:none;stroke:#616162;stroke-width:1.15999997;stroke-linecap:round;stroke-linejoin:round;stroke-miterlimit:10" /><path
     id="path35731"
     inkscape:connector-curvature="0"
     stroke-miterlimit="10"
     d="m 96.718,204.828 v 43.453"
     style="fill:none;stroke:#616162;stroke-width:1.15999997;stroke-linecap:round;stroke-linejoin:round;stroke-miterlimit:10" /><path
     id="path35733"
     inkscape:connector-curvature="0"
     stroke-miterlimit="10"
     d="m 135.718,204.828 v 43.453"
     style="fill:none;stroke:#616162;stroke-width:1.15999997;stroke-linecap:round;stroke-linejoin:round;stroke-miterlimit:10" /><path
     id="path35805"
     inkscape:connector-curvature="0"
     stroke-miterlimit="10"
     d="M 31.723,73.749 V 97.75"
     style="fill:none;stroke:#616162;stroke-width:1.15069997;stroke-linecap:round;stroke-linejoin:round;stroke-miterlimit:10" /><path
     id="path35807"
     inkscape:connector-curvature="0"
     stroke-miterlimit="10"
     d="M 293.787,69.61 V 97.75"
     style="fill:none;stroke:#616162;stroke-width:1.24600005;stroke-linecap:round;stroke-linejoin:round;stroke-miterlimit:10" /><path
     id="path35809"
     inkscape:connector-curvature="0"
     stroke-miterlimit="10"
     d="M 107.723,69.61 V 97.75"
     style="fill:none;stroke:#616162;stroke-width:1.24600005;stroke-linecap:round;stroke-linejoin:round;stroke-miterlimit:10" /><path
     id="path35817"
     inkscape:connector-curvature="0"
     stroke-miterlimit="10"
     d="M 145.723,69.61 V 97.75"
     style="fill:none;stroke:#616162;stroke-width:1.24600005;stroke-linecap:round;stroke-linejoin:round;stroke-miterlimit:10" /><path
     id="path37367"
     inkscape:connector-curvature="0"
     d="m 308.538,98.127 c 0,-1.345 -1.079,-2.445 -2.398,-2.445 h -23.272 c -1.316,0 -2.395,1.1 -2.395,2.445 v 23.746 c 0,1.345 1.077,2.445 2.395,2.445 h 23.272 c 1.319,0 2.398,-1.1 2.398,-2.445 z" /><path
     id="path35727_1_"
     inkscape:connector-curvature="0"
     stroke-miterlimit="10"
     d="m 39.73,204.829 v 81.683"
     style="fill:none;stroke:#616162;stroke-width:1.59039998;stroke-linecap:round;stroke-linejoin:round;stroke-miterlimit:10" /><path
     id="path35729_1_"
     inkscape:connector-curvature="0"
     stroke-miterlimit="10"
     d="m 77.73,204.829 v 81.683"
     style="fill:none;stroke:#616162;stroke-width:1.59039998;stroke-linecap:round;stroke-linejoin:round;stroke-miterlimit:10" /><path
     id="path35731_1_"
     inkscape:connector-curvature="0"
     stroke-miterlimit="10"
     d="m 115.73,204.829 v 81.683"
     style="fill:none;stroke:#616162;stroke-width:1.59039998;stroke-linecap:round;stroke-linejoin:round;stroke-miterlimit:10" /><path
     id="path35733_1_"
     inkscape:connector-curvature="0"
     stroke-miterlimit="10"
     d="m 154.73,204.829 v 81.683"
     style="fill:none;stroke:#616162;stroke-width:1.59039998;stroke-linecap:round;stroke-linejoin:round;stroke-miterlimit:10" /><path
     id="path35727_3_"
     inkscape:connector-curvature="0"
     stroke-miterlimit="10"
     d="m 173.816,204.828 v 43.453"
     style="fill:none;stroke:#616162;stroke-width:1.15999997;stroke-linecap:round;stroke-linejoin:round;stroke-miterlimit:10" /><path
     id="path35729_3_"
     inkscape:connector-curvature="0"
     stroke-miterlimit="10"
     d="m 211.814,204.828 v 43.453"
     style="fill:none;stroke:#616162;stroke-width:1.15999997;stroke-linecap:round;stroke-linejoin:round;stroke-miterlimit:10" /><path
     id="path35731_3_"
     inkscape:connector-curvature="0"
     stroke-miterlimit="10"
     d="m 249.812,204.828 v 43.453"
     style="fill:none;stroke:#616162;stroke-width:1.15999997;stroke-linecap:round;stroke-linejoin:round;stroke-miterlimit:10" /><path
     id="path35733_3_"
     inkscape:connector-curvature="0"
     stroke-miterlimit="10"
     d="m 287.809,204.828 v 43.453"
     style="fill:none;stroke:#616162;stroke-width:1.15999997;stroke-linecap:round;stroke-linejoin:round;stroke-miterlimit:10" /><path
     id="path35727_2_"
     inkscape:connector-curvature="0"
     stroke-miterlimit="10"
     d="m 192.827,204.829 v 81.683"
     style="fill:none;stroke:#616162;stroke-width:1.59039998;stroke-linecap:round;stroke-linejoin:round;stroke-miterlimit:10" /><path
     id="path35729_2_"
     inkscape:connector-curvature="0"
     stroke-miterlimit="10"
     d="m 229.825,204.829 v 81.683"
     style="fill:none;stroke:#616162;stroke-width:1.59039998;stroke-linecap:round;stroke-linejoin:round;stroke-miterlimit:10" /><path
     id="path35731_2_"
     inkscape:connector-curvature="0"
     stroke-miterlimit="10"
     d="m 268.825,204.829 v 81.683"
     style="fill:none;stroke:#616162;stroke-width:1.59039998;stroke-linecap:round;stroke-linejoin:round;stroke-miterlimit:10" /><path
     id="path35733_2_"
     inkscape:connector-curvature="0"
     stroke-miterlimit="10"
     d="m 305.821,204.829 v 81.683"
     style="fill:none;stroke:#616162;stroke-width:1.59039998;stroke-linecap:round;stroke-linejoin:round;stroke-miterlimit:10" /><rect
     x="15.424"
     y="183.84599"
     width="146.116"
     height="8"
     id="rect2059"
     style="fill:#6c6365" /><rect
     x="167.52101"
     y="183.84599"
     width="146.10899"
     height="8"
     id="rect2061"
     style="fill:#6c6365" /><rect
     x="15.424"
     y="170.838"
     width="69.549004"
     height="8"
     id="rect2063"
     style="fill:#6c6365" /><rect
     x="91.473"
     y="170.838"
     width="69.549004"
     height="8"
     id="rect2065"
     style="fill:#6c6365" /><rect
     x="167.51701"
     y="170.838"
     width="69.545998"
     height="8"
     id="rect2067"
     style="fill:#6c6365" /><rect
     x="243.563"
     y="170.838"
     width="69.544998"
     height="8"
     id="rect2069"
     style="fill:#6c6365" /><rect
     x="15.424"
     y="157.83099"
     width="107.051"
     height="8"
     id="rect2071"
     style="fill:#6c6365" /><rect
     x="72.427002"
     y="157.83099"
     width="50.049"
     height="8"
     id="rect2073"
     style="fill:#6c6365" /><rect
     x="129.46001"
     y="157.83099"
     width="107.613"
     height="8"
     id="rect2075"
     style="fill:#6c6365" /><rect
     x="187.153"
     y="157.83099"
     width="50.047001"
     height="8"
     id="rect2077"
     style="fill:#6c6365" /><rect
     x="244.151"
     y="157.83099"
     width="68.963997"
     height="8"
     id="rect2079"
     style="fill:#6c6365" /><rect
     x="301.189"
     y="157.83099"
     width="11.933"
     height="8"
     id="rect2081"
     style="fill:#6c6365" /><rect
     x="15.424"
     y="144.823"
     width="50.049"
     height="8"
     id="rect2083"
     style="fill:#6c6365" /><rect
     x="72.427002"
     y="144.823"
     width="50.049"
     height="8"
     id="rect2085"
     style="fill:#6c6365" /><rect
     x="129.46201"
     y="144.823"
     width="50.053001"
     height="8"
     id="rect2087"
     style="fill:#6c6365" /><rect
     x="187.153"
     y="144.823"
     width="50.047001"
     height="8"
     id="rect2089"
     style="fill:#6c6365" /><rect
     x="244.153"
     y="144.823"
     width="50.047001"
     height="8"
     id="rect2091"
     style="fill:#6c6365" /><rect
     x="301.189"
     y="144.823"
     width="11.933"
     height="8"
     id="rect2093"
     style="fill:#6c6365" /><g
     id="g2109"
     transform="translate(-0.277)"><path
       stroke-miterlimit="10"
       d="m 149.449,321.162 h -1.845 v -0.666 h 4.492 v 0.666 h -1.854 v 5.4 h -0.792 z"
       id="path2095"
       inkscape:connector-curvature="0"
       style="fill:#231f20;stroke:#231f20;stroke-width:0.75;stroke-miterlimit:10" /><path
       stroke-miterlimit="10"
       d="m 152.77,320.577 c 0.396,-0.081 0.963,-0.127 1.503,-0.127 0.837,0 1.377,0.153 1.756,0.495 0.306,0.271 0.477,0.685 0.477,1.152 0,0.801 -0.504,1.332 -1.144,1.549 v 0.025 c 0.468,0.162 0.748,0.596 0.892,1.227 0.198,0.846 0.342,1.431 0.468,1.664 h -0.81 c -0.099,-0.17 -0.234,-0.692 -0.405,-1.448 -0.18,-0.839 -0.504,-1.152 -1.215,-1.181 h -0.738 v 2.629 h -0.783 z m 0.783,2.764 h 0.801 c 0.837,0 1.369,-0.459 1.369,-1.151 0,-0.782 -0.567,-1.127 -1.396,-1.135 -0.378,0 -0.648,0.035 -0.774,0.071 z"
       id="path2097"
       inkscape:connector-curvature="0"
       style="fill:#231f20;stroke:#231f20;stroke-width:0.75;stroke-miterlimit:10" /><path
       stroke-miterlimit="10"
       d="m 158.395,320.496 v 6.066 h -0.783 v -6.066 z"
       id="path2099"
       inkscape:connector-curvature="0"
       style="fill:#231f20;stroke:#231f20;stroke-width:0.75;stroke-miterlimit:10" /><path
       stroke-miterlimit="10"
       d="m 164.381,326.293 c -0.351,0.126 -1.044,0.334 -1.864,0.334 -0.918,0 -1.674,-0.234 -2.269,-0.802 -0.522,-0.505 -0.846,-1.313 -0.846,-2.261 0.009,-1.811 1.251,-3.133 3.286,-3.133 0.703,0 1.251,0.152 1.513,0.278 l -0.189,0.64 c -0.324,-0.145 -0.729,-0.262 -1.341,-0.262 -1.477,0 -2.44,0.918 -2.44,2.438 0,1.541 0.927,2.449 2.341,2.449 0.513,0 0.864,-0.07 1.044,-0.162 v -1.81 h -1.233 v -0.63 h 1.999 z"
       id="path2101"
       inkscape:connector-curvature="0"
       style="fill:#231f20;stroke:#231f20;stroke-width:0.75;stroke-miterlimit:10" /><path
       stroke-miterlimit="10"
       d="m 165.469,325.609 c 0.352,0.216 0.864,0.396 1.404,0.396 0.801,0 1.27,-0.423 1.27,-1.034 0,-0.566 -0.324,-0.892 -1.144,-1.207 -0.99,-0.352 -1.603,-0.863 -1.603,-1.72 0,-0.944 0.784,-1.647 1.963,-1.647 0.621,0 1.07,0.146 1.341,0.297 l -0.216,0.642 c -0.198,-0.106 -0.604,-0.288 -1.152,-0.288 -0.828,0 -1.145,0.495 -1.145,0.909 0,0.565 0.369,0.847 1.207,1.17 1.025,0.396 1.549,0.894 1.549,1.783 0,0.937 -0.693,1.745 -2.125,1.745 -0.586,0 -1.224,-0.172 -1.548,-0.387 z"
       id="path2103"
       inkscape:connector-curvature="0"
       style="fill:#231f20;stroke:#231f20;stroke-width:0.75;stroke-miterlimit:10" /><path
       stroke-miterlimit="10"
       d="m 172.704,320.496 v 6.066 h -0.783 v -6.066 z"
       id="path2105"
       inkscape:connector-curvature="0"
       style="fill:#231f20;stroke:#231f20;stroke-width:0.75;stroke-miterlimit:10" /><path
       stroke-miterlimit="10"
       d="m 174.072,326.562 v -6.066 h 0.854 l 1.944,3.068 c 0.448,0.711 0.801,1.352 1.089,1.973 l 0.02,-0.01 c -0.071,-0.812 -0.09,-1.549 -0.09,-2.493 v -2.538 h 0.737 v 6.066 h -0.793 l -1.926,-3.078 c -0.425,-0.676 -0.829,-1.368 -1.136,-2.025 l -0.026,0.009 c 0.045,0.767 0.062,1.494 0.062,2.503 v 2.594 h -0.735 z"
       id="path2107"
       inkscape:connector-curvature="0"
       style="fill:#231f20;stroke:#231f20;stroke-width:0.75;stroke-miterlimit:10" /></g><g
     id="g2121"
     transform="translate(-0.277)"><path
       stroke-miterlimit="10"
       d="m 21.88,49.159 c -0.288,0.144 -0.864,0.288 -1.603,0.288 -1.71,0 -2.998,-1.08 -2.998,-3.07 0,-1.899 1.287,-3.187 3.169,-3.187 0.756,0 1.233,0.162 1.44,0.27 l -0.189,0.64 c -0.297,-0.145 -0.72,-0.252 -1.225,-0.252 -1.422,0 -2.368,0.909 -2.368,2.503 0,1.485 0.855,2.439 2.332,2.439 0.477,0 0.963,-0.099 1.278,-0.252 z"
       id="path2111"
       inkscape:connector-curvature="0"
       style="stroke:#000000;stroke-width:0.75;stroke-miterlimit:10" /><path
       stroke-miterlimit="10"
       d="m 22.86,43.29 h 0.783 v 5.41 h 2.593 v 0.657 H 22.86 Z"
       id="path2113"
       inkscape:connector-curvature="0"
       style="stroke:#000000;stroke-width:0.75;stroke-miterlimit:10" /><path
       stroke-miterlimit="10"
       d="m 31.942,46.26 c 0,2.089 -1.269,3.196 -2.818,3.196 -1.603,0 -2.728,-1.243 -2.728,-3.079 0,-1.926 1.197,-3.187 2.818,-3.187 1.657,0 2.728,1.27 2.728,3.07 z m -4.708,0.099 c 0,1.296 0.703,2.458 1.936,2.458 1.242,0 1.944,-1.144 1.944,-2.521 0,-1.206 -0.63,-2.467 -1.936,-2.467 -1.296,10e-4 -1.944,1.198 -1.944,2.53 z"
       id="path2115"
       inkscape:connector-curvature="0"
       style="stroke:#000000;stroke-width:0.75;stroke-miterlimit:10" /><path
       stroke-miterlimit="10"
       d="m 37.198,49.159 c -0.288,0.144 -0.864,0.288 -1.603,0.288 -1.71,0 -2.998,-1.08 -2.998,-3.07 0,-1.899 1.287,-3.187 3.169,-3.187 0.756,0 1.233,0.162 1.44,0.27 l -0.189,0.64 c -0.297,-0.145 -0.72,-0.252 -1.225,-0.252 -1.422,0 -2.368,0.909 -2.368,2.503 0,1.485 0.855,2.439 2.332,2.439 0.478,0 0.963,-0.099 1.278,-0.252 z"
       id="path2117"
       inkscape:connector-curvature="0"
       style="stroke:#000000;stroke-width:0.75;stroke-miterlimit:10" /><path
       stroke-miterlimit="10"
       d="m 38.178,43.29 h 0.783 v 2.926 h 0.027 c 0.162,-0.234 0.324,-0.45 0.477,-0.648 l 1.854,-2.278 h 0.972 l -2.197,2.575 2.368,3.493 h -0.927 l -1.999,-2.98 -0.576,0.667 v 2.313 H 38.177 V 43.29 Z"
       id="path2119"
       inkscape:connector-curvature="0"
       style="stroke:#000000;stroke-width:0.75;stroke-miterlimit:10" /></g><g
     id="g2129"
     transform="translate(-0.277)"><path
       stroke-miterlimit="10"
       d="m 62.08,43.371 c 0.396,-0.081 0.963,-0.126 1.503,-0.126 0.837,0 1.377,0.153 1.756,0.495 0.306,0.27 0.477,0.684 0.477,1.152 0,0.801 -0.504,1.333 -1.144,1.548 v 0.027 c 0.468,0.162 0.748,0.594 0.892,1.224 0.198,0.846 0.342,1.432 0.468,1.666 h -0.81 c -0.099,-0.171 -0.234,-0.693 -0.405,-1.449 -0.18,-0.837 -0.504,-1.152 -1.215,-1.18 h -0.738 v 2.629 H 62.08 Z m 0.783,2.763 h 0.801 c 0.837,0 1.369,-0.459 1.369,-1.152 0,-0.783 -0.567,-1.125 -1.396,-1.134 -0.378,0 -0.648,0.036 -0.774,0.072 z"
       id="path2123"
       inkscape:connector-curvature="0"
       style="stroke:#000000;stroke-width:0.75;stroke-miterlimit:10" /><path
       stroke-miterlimit="10"
       d="m 67.705,43.29 v 3.592 c 0,1.359 0.604,1.936 1.414,1.936 0.9,0 1.477,-0.594 1.477,-1.936 V 43.29 h 0.792 v 3.538 c 0,1.864 -0.981,2.629 -2.295,2.629 -1.243,0 -2.179,-0.711 -2.179,-2.593 V 43.29 Z"
       id="path2125"
       inkscape:connector-curvature="0"
       style="stroke:#000000;stroke-width:0.75;stroke-miterlimit:10" /><path
       stroke-miterlimit="10"
       d="M 72.745,49.357 V 43.29 H 73.6 l 1.944,3.07 c 0.45,0.711 0.801,1.351 1.089,1.972 l 0.018,-0.009 c -0.072,-0.811 -0.09,-1.549 -0.09,-2.494 V 43.29 H 77.3 v 6.068 h -0.792 l -1.927,-3.079 c -0.423,-0.675 -0.828,-1.368 -1.134,-2.025 l -0.027,0.009 c 0.045,0.766 0.063,1.495 0.063,2.503 v 2.593 h -0.738 z"
       id="path2127"
       inkscape:connector-curvature="0"
       style="stroke:#000000;stroke-width:0.75;stroke-miterlimit:10" /></g><g
     id="g2141"
     transform="translate(-0.277)"><path
       stroke-miterlimit="10"
       d="m 97.021,43.371 c 0.396,-0.081 0.963,-0.126 1.503,-0.126 0.837,0 1.377,0.153 1.756,0.495 0.306,0.27 0.477,0.684 0.477,1.152 0,0.801 -0.504,1.333 -1.144,1.548 v 0.027 c 0.468,0.162 0.748,0.594 0.892,1.224 0.198,0.846 0.342,1.432 0.468,1.666 h -0.81 c -0.099,-0.171 -0.234,-0.693 -0.405,-1.449 -0.18,-0.837 -0.504,-1.152 -1.215,-1.18 h -0.738 v 2.629 h -0.783 z m 0.784,2.763 h 0.801 c 0.837,0 1.369,-0.459 1.369,-1.152 0,-0.783 -0.567,-1.125 -1.396,-1.134 -0.378,0 -0.648,0.036 -0.774,0.072 z"
       id="path2131"
       inkscape:connector-curvature="0"
       style="stroke:#000000;stroke-width:0.75;stroke-miterlimit:10" /><path
       stroke-miterlimit="10"
       d="m 105.005,46.513 h -2.359 V 48.7 h 2.629 v 0.657 h -3.412 V 43.29 h 3.277 v 0.657 h -2.494 v 1.917 h 2.359 z"
       id="path2133"
       inkscape:connector-curvature="0"
       style="stroke:#000000;stroke-width:0.75;stroke-miterlimit:10" /><path
       stroke-miterlimit="10"
       d="m 106.183,48.403 c 0.351,0.216 0.864,0.396 1.404,0.396 0.801,0 1.27,-0.423 1.27,-1.035 0,-0.567 -0.324,-0.892 -1.144,-1.207 -0.99,-0.351 -1.603,-0.864 -1.603,-1.72 0,-0.945 0.784,-1.647 1.963,-1.647 0.621,0 1.071,0.144 1.341,0.297 l -0.216,0.639 c -0.198,-0.108 -0.604,-0.288 -1.152,-0.288 -0.829,0 -1.144,0.495 -1.144,0.909 0,0.567 0.369,0.846 1.207,1.17 1.026,0.396 1.548,0.891 1.548,1.782 0,0.937 -0.693,1.747 -2.125,1.747 -0.585,0 -1.225,-0.171 -1.549,-0.387 z"
       id="path2135"
       inkscape:connector-curvature="0"
       style="stroke:#000000;stroke-width:0.75;stroke-miterlimit:10" /><path
       stroke-miterlimit="10"
       d="m 113.87,46.513 h -2.359 V 48.7 h 2.629 v 0.657 h -3.412 V 43.29 h 3.277 v 0.657 h -2.494 v 1.917 h 2.359 z"
       id="path2137"
       inkscape:connector-curvature="0"
       style="stroke:#000000;stroke-width:0.75;stroke-miterlimit:10" /><path
       stroke-miterlimit="10"
       d="m 116.452,43.956 h -1.845 V 43.29 h 4.492 v 0.666 h -1.854 v 5.402 h -0.792 z"
       id="path2139"
       inkscape:connector-curvature="0"
       style="stroke:#000000;stroke-width:0.75;stroke-miterlimit:10" /></g><g
     id="g2153"
     transform="translate(-0.277)"><path
       stroke-miterlimit="10"
       d="m 135.032,48.403 c 0.351,0.216 0.864,0.396 1.404,0.396 0.801,0 1.27,-0.423 1.27,-1.035 0,-0.567 -0.324,-0.892 -1.144,-1.207 -0.99,-0.351 -1.603,-0.864 -1.603,-1.72 0,-0.945 0.784,-1.647 1.963,-1.647 0.621,0 1.071,0.144 1.341,0.297 l -0.216,0.639 c -0.198,-0.108 -0.604,-0.288 -1.152,-0.288 -0.829,0 -1.144,0.495 -1.144,0.909 0,0.567 0.369,0.846 1.207,1.17 1.026,0.396 1.548,0.891 1.548,1.782 0,0.937 -0.693,1.747 -2.125,1.747 -0.585,0 -1.225,-0.171 -1.549,-0.387 z"
       id="path2143"
       inkscape:connector-curvature="0"
       style="stroke:#000000;stroke-width:0.75;stroke-miterlimit:10" /><path
       stroke-miterlimit="10"
       d="m 140.729,43.956 h -1.845 V 43.29 h 4.492 v 0.666 h -1.854 v 5.402 h -0.792 z"
       id="path2145"
       inkscape:connector-curvature="0"
       style="stroke:#000000;stroke-width:0.75;stroke-miterlimit:10" /><path
       stroke-miterlimit="10"
       d="m 147.192,46.513 h -2.359 V 48.7 h 2.629 v 0.657 H 144.05 V 43.29 h 3.277 v 0.657 h -2.494 v 1.917 h 2.359 z"
       id="path2147"
       inkscape:connector-curvature="0"
       style="stroke:#000000;stroke-width:0.75;stroke-miterlimit:10" /><path
       stroke-miterlimit="10"
       d="m 148.478,43.362 c 0.378,-0.063 0.874,-0.117 1.503,-0.117 0.774,0 1.342,0.18 1.702,0.504 0.333,0.288 0.531,0.729 0.531,1.27 0,0.549 -0.162,0.981 -0.468,1.296 -0.414,0.441 -1.089,0.667 -1.854,0.667 -0.234,0 -0.45,-0.009 -0.63,-0.054 v 2.431 h -0.783 z m 0.783,2.926 c 0.171,0.045 0.387,0.063 0.648,0.063 0.945,0 1.521,-0.459 1.521,-1.296 0,-0.801 -0.567,-1.188 -1.432,-1.188 -0.342,0 -0.603,0.027 -0.738,0.063 v 2.358 z"
       id="path2149"
       inkscape:connector-curvature="0"
       style="stroke:#000000;stroke-width:0.75;stroke-miterlimit:10" /><path
       stroke-miterlimit="10"
       d="m 153.158,48.403 c 0.351,0.216 0.864,0.396 1.404,0.396 0.801,0 1.27,-0.423 1.27,-1.035 0,-0.567 -0.324,-0.892 -1.144,-1.207 -0.99,-0.351 -1.603,-0.864 -1.603,-1.72 0,-0.945 0.784,-1.647 1.963,-1.647 0.621,0 1.071,0.144 1.341,0.297 l -0.216,0.639 c -0.198,-0.108 -0.604,-0.288 -1.152,-0.288 -0.829,0 -1.144,0.495 -1.144,0.909 0,0.567 0.369,0.846 1.207,1.17 1.026,0.396 1.548,0.891 1.548,1.782 0,0.937 -0.693,1.747 -2.125,1.747 -0.585,0 -1.225,-0.171 -1.549,-0.387 z"
       id="path2151"
       inkscape:connector-curvature="0"
       style="stroke:#000000;stroke-width:0.75;stroke-miterlimit:10" /></g><g
     id="g2169"
     transform="translate(-0.277)"><path
       stroke-miterlimit="10"
       d="m 289.375,43.756 c -0.352,0.126 -1.045,0.333 -1.864,0.333 -0.918,0 -1.674,-0.234 -2.269,-0.801 -0.522,-0.504 -0.846,-1.314 -0.846,-2.26 0.008,-1.81 1.25,-3.133 3.285,-3.133 0.701,0 1.252,0.153 1.512,0.279 l -0.188,0.639 c -0.323,-0.144 -0.729,-0.261 -1.342,-0.261 -1.478,0 -2.438,0.918 -2.438,2.44 0,1.539 0.928,2.449 2.342,2.449 0.513,0 0.863,-0.072 1.043,-0.162 v -1.81 h -1.232 v -0.63 h 1.999 z"
       id="path2155"
       inkscape:connector-curvature="0"
       style="stroke:#000000;stroke-width:0.75;stroke-miterlimit:10" /><path
       stroke-miterlimit="10"
       d="m 291.552,42.118 -0.631,1.909 h -0.81 l 2.062,-6.068 h 0.945 l 2.069,6.068 h -0.836 l -0.648,-1.909 z m 1.989,-0.612 -0.594,-1.747 c -0.137,-0.396 -0.227,-0.756 -0.315,-1.107 h -0.019 c -0.09,0.36 -0.188,0.729 -0.307,1.098 l -0.595,1.756 z"
       id="path2157"
       inkscape:connector-curvature="0"
       style="stroke:#000000;stroke-width:0.75;stroke-miterlimit:10" /><path
       stroke-miterlimit="10"
       d="m 296.537,38.625 h -1.846 v -0.667 h 4.492 v 0.667 h -1.854 v 5.401 h -0.793 z"
       id="path2159"
       inkscape:connector-curvature="0"
       style="stroke:#000000;stroke-width:0.75;stroke-miterlimit:10" /><path
       stroke-miterlimit="10"
       d="m 303,41.182 h -2.357 v 2.188 h 2.629 v 0.657 h -3.412 v -6.068 h 3.275 v 0.657 h -2.492 v 1.917 H 303 Z"
       id="path2161"
       inkscape:connector-curvature="0"
       style="stroke:#000000;stroke-width:0.75;stroke-miterlimit:10" /><path
       stroke-miterlimit="10"
       d="m 291.458,51.729 c 0,2.088 -1.269,3.196 -2.817,3.196 -1.603,0 -2.728,-1.243 -2.728,-3.079 0,-1.926 1.196,-3.187 2.817,-3.187 1.657,0 2.728,1.27 2.728,3.07 z m -4.708,0.099 c 0,1.296 0.702,2.458 1.936,2.458 1.242,0 1.944,-1.144 1.944,-2.521 0,-1.206 -0.63,-2.467 -1.937,-2.467 -1.295,0 -1.943,1.198 -1.943,2.53 z"
       id="path2163"
       inkscape:connector-curvature="0"
       style="stroke:#000000;stroke-width:0.75;stroke-miterlimit:10" /><path
       stroke-miterlimit="10"
       d="m 293.257,48.758 v 3.592 c 0,1.359 0.604,1.936 1.414,1.936 0.899,0 1.478,-0.594 1.478,-1.936 v -3.592 h 0.791 v 3.538 c 0,1.864 -0.979,2.629 -2.295,2.629 -1.242,0 -2.18,-0.711 -2.18,-2.593 v -3.574 z"
       id="path2165"
       inkscape:connector-curvature="0"
       style="stroke:#000000;stroke-width:0.75;stroke-miterlimit:10" /><path
       stroke-miterlimit="10"
       d="m 299.449,49.425 h -1.846 v -0.667 h 4.492 v 0.667 h -1.854 v 5.401 h -0.792 z"
       id="path2167"
       inkscape:connector-curvature="0"
       style="stroke:#000000;stroke-width:0.75;stroke-miterlimit:10" /></g><g
     id="g2183"
     transform="translate(-0.277)"><path
       stroke-miterlimit="10"
       d="m 59.234,90.004 h -2.359 v 2.188 h 2.629 v 0.657 h -3.412 v -6.068 h 3.277 v 0.657 h -2.494 v 1.917 h 2.359 z"
       id="path2171"
       inkscape:connector-curvature="0"
       style="stroke:#000000;stroke-width:0.75;stroke-miterlimit:10" /><path
       stroke-miterlimit="10"
       d="m 63.842,92.849 -0.774,-1.341 c -0.315,-0.513 -0.513,-0.846 -0.702,-1.197 h -0.018 c -0.171,0.351 -0.342,0.675 -0.657,1.206 l -0.729,1.333 h -0.9 l 1.854,-3.07 -1.783,-2.998 h 0.91 l 0.801,1.422 c 0.225,0.396 0.396,0.702 0.558,1.026 h 0.027 c 0.171,-0.36 0.324,-0.639 0.549,-1.026 l 0.828,-1.422 h 0.9 l -1.846,2.953 1.891,3.115 z"
       id="path2173"
       inkscape:connector-curvature="0"
       style="stroke:#000000;stroke-width:0.75;stroke-miterlimit:10" /><path
       stroke-miterlimit="10"
       d="m 66.883,87.447 h -1.845 v -0.666 h 4.492 v 0.666 h -1.854 v 5.402 h -0.792 z"
       id="path2175"
       inkscape:connector-curvature="0"
       style="stroke:#000000;stroke-width:0.75;stroke-miterlimit:10" /><path
       stroke-miterlimit="10"
       d="m 76.352,92.65 c -0.288,0.144 -0.864,0.288 -1.603,0.288 -1.71,0 -2.998,-1.08 -2.998,-3.07 0,-1.899 1.287,-3.187 3.169,-3.187 0.756,0 1.233,0.162 1.44,0.27 l -0.189,0.64 c -0.297,-0.145 -0.72,-0.252 -1.225,-0.252 -1.422,0 -2.368,0.909 -2.368,2.503 0,1.485 0.855,2.439 2.332,2.439 0.477,0 0.963,-0.099 1.278,-0.252 z"
       id="path2177"
       inkscape:connector-curvature="0"
       style="stroke:#000000;stroke-width:0.75;stroke-miterlimit:10" /><path
       stroke-miterlimit="10"
       d="m 77.331,86.781 h 0.783 v 5.411 h 2.593 v 0.657 h -3.376 z"
       id="path2179"
       inkscape:connector-curvature="0"
       style="stroke:#000000;stroke-width:0.75;stroke-miterlimit:10" /><path
       stroke-miterlimit="10"
       d="m 81.579,86.781 h 0.783 v 2.926 h 0.027 c 0.162,-0.234 0.324,-0.45 0.477,-0.648 l 1.854,-2.278 h 0.972 l -2.197,2.575 2.368,3.493 h -0.928 l -1.999,-2.98 -0.576,0.667 v 2.313 h -0.783 v -6.068 z"
       id="path2181"
       inkscape:connector-curvature="0"
       style="stroke:#000000;stroke-width:0.75;stroke-miterlimit:10" /></g><g
     id="g2189"
     transform="translate(-0.277)"><path
       stroke-miterlimit="10"
       d="m 164.204,367.725 c -0.379,0.168 -1.092,0.311 -1.905,0.311 -2.214,0 -3.628,-1.348 -3.628,-3.502 0,-2.006 1.373,-3.645 3.922,-3.645 0.56,0 1.177,0.1 1.625,0.27 l -0.336,1.58 c -0.252,-0.105 -0.631,-0.211 -1.19,-0.211 -1.121,0 -1.849,0.801 -1.835,1.922 0,1.26 0.84,1.92 1.877,1.92 0.503,0 0.896,-0.086 1.219,-0.211 z"
       id="path2185"
       inkscape:connector-curvature="0"
       style="stroke:#231f20;stroke-width:0.25;stroke-miterlimit:10" /><path
       stroke-miterlimit="10"
       d="m 166.12,362.121 h 1.274 l 0.041,-0.447 c 0.11,-0.939 0.631,-3.039 3.039,-3.039 0.478,0 0.912,0.098 1.164,0.223 l -0.338,1.516 c -0.169,-0.064 -0.394,-0.127 -0.658,-0.127 -0.699,0 -1.035,0.506 -1.119,1.266 l -0.084,0.611 h 1.429 v 1.484 h -1.606 l -0.312,2.492 c -0.212,1.709 -0.785,3.066 -2.771,3.066 -0.579,-0.014 -1.068,-0.125 -1.279,-0.236 l 0.295,-1.484 c 0.209,0.084 0.434,0.111 0.66,0.111 0.699,-0.016 0.938,-0.393 1.139,-1.988 l 0.227,-1.961 h -1.098 v -1.484 z"
       id="path2187"
       inkscape:connector-curvature="0"
       style="stroke:#231f20;stroke-width:0.25;stroke-miterlimit:10" /></g><g
     id="g2201"
     transform="translate(-0.277)"><path
       stroke-miterlimit="10"
       d="m 152.793,14.812 v 1.679 h 1.307 v 1.343 h -1.307 v 2.123 c 0,0.708 0.168,1.032 0.72,1.032 0.228,0 0.408,-0.024 0.54,-0.048 l 0.012,1.379 c -0.24,0.096 -0.672,0.156 -1.188,0.156 -0.588,0 -1.08,-0.204 -1.367,-0.504 -0.336,-0.348 -0.504,-0.912 -0.504,-1.739 v -2.398 h -0.779 v -1.343 h 0.779 v -1.271 z"
       id="path2191"
       inkscape:connector-curvature="0"
       style="stroke:#231f20;stroke-miterlimit:10" /><path
       stroke-miterlimit="10"
       d="m 155.158,18.421 c 0,-0.863 -0.024,-1.427 -0.048,-1.931 h 1.571 l 0.06,1.08 h 0.048 c 0.3,-0.852 1.02,-1.211 1.583,-1.211 0.168,0 0.252,0 0.384,0.024 v 1.715 c -0.132,-0.024 -0.288,-0.048 -0.492,-0.048 -0.672,0 -1.127,0.36 -1.247,0.923 -0.024,0.12 -0.036,0.264 -0.036,0.408 v 2.974 h -1.823 z"
       id="path2193"
       inkscape:connector-curvature="0"
       style="stroke:#231f20;stroke-miterlimit:10" /><path
       stroke-miterlimit="10"
       d="m 159.838,20.473 c 0.492,0.251 1.247,0.503 2.027,0.503 0.839,0 1.283,-0.348 1.283,-0.875 0,-0.503 -0.384,-0.792 -1.355,-1.139 -1.343,-0.468 -2.219,-1.211 -2.219,-2.387 0,-1.379 1.151,-2.435 3.058,-2.435 0.912,0 1.583,0.192 2.063,0.408 l -0.408,1.475 c -0.324,-0.156 -0.9,-0.384 -1.691,-0.384 -0.791,0 -1.175,0.36 -1.175,0.78 0,0.516 0.456,0.743 1.5,1.139 1.427,0.528 2.099,1.271 2.099,2.411 0,1.355 -1.043,2.507 -3.262,2.507 -0.923,0 -1.835,-0.24 -2.291,-0.492 z"
       id="path2195"
       inkscape:connector-curvature="0"
       style="stroke:#231f20;stroke-miterlimit:10" /><path
       stroke-miterlimit="10"
       d="m 171.066,18.938 h -2.976 v 1.919 h 3.322 v 1.499 h -5.157 v -8.083 h 4.989 v 1.499 h -3.154 v 1.679 h 2.976 z"
       id="path2197"
       inkscape:connector-curvature="0"
       style="stroke:#231f20;stroke-miterlimit:10" /><path
       stroke-miterlimit="10"
       d="m 179.574,23.747 c -1.151,-0.336 -2.11,-0.684 -3.189,-1.139 -0.181,-0.072 -0.371,-0.108 -0.564,-0.12 -1.82,-0.12 -3.523,-1.463 -3.523,-4.102 0,-2.423 1.535,-4.246 3.945,-4.246 2.471,0 3.824,1.871 3.824,4.078 0,1.835 -0.852,3.13 -1.918,3.61 v 0.048 c 0.623,0.18 1.318,0.324 1.955,0.456 z m -1.437,-5.457 c 0,-1.475 -0.697,-2.698 -1.943,-2.698 -1.248,0 -1.967,1.223 -1.967,2.734 -0.013,1.535 0.73,2.71 1.955,2.71 1.234,0 1.955,-1.163 1.955,-2.746 z"
       id="path2199"
       inkscape:connector-curvature="0"
       style="stroke:#231f20;stroke-miterlimit:10" /></g><path
     id="path35809_2_"
     inkscape:connector-curvature="0"
     stroke-miterlimit="10"
     d="M 199.781,69.61 V 97.75"
     style="fill:none;stroke:#616162;stroke-width:1.24600005;stroke-linecap:round;stroke-linejoin:round;stroke-miterlimit:10" /><path
     id="path35817_1_"
     inkscape:connector-curvature="0"
     stroke-miterlimit="10"
     d="M 237.779,69.61 V 97.75"
     style="fill:none;stroke:#616162;stroke-width:1.24600005;stroke-linecap:round;stroke-linejoin:round;stroke-miterlimit:10" /><g
     id="g2215"
     transform="translate(-0.277)"><path
       stroke-miterlimit="10"
       d="m 188.9,43.842 h -1.845 v -0.667 h 4.492 v 0.667 h -1.854 v 5.401 H 188.9 Z"
       id="path2205"
       inkscape:connector-curvature="0"
       style="stroke:#231f20;stroke-width:0.75;stroke-miterlimit:10" /><path
       stroke-miterlimit="10"
       d="m 192.527,47.334 -0.63,1.909 h -0.811 l 2.062,-6.068 h 0.945 l 2.071,6.068 h -0.838 l -0.647,-1.909 z m 1.991,-0.611 -0.595,-1.747 c -0.135,-0.396 -0.225,-0.756 -0.315,-1.107 h -0.018 c -0.09,0.36 -0.189,0.729 -0.306,1.098 l -0.595,1.756 z"
       id="path2207"
       inkscape:connector-curvature="0"
       style="stroke:#231f20;stroke-width:0.75;stroke-miterlimit:10" /><path
       stroke-miterlimit="10"
       d="m 197.055,43.248 c 0.378,-0.063 0.873,-0.117 1.503,-0.117 0.774,0 1.342,0.18 1.702,0.504 0.333,0.288 0.531,0.729 0.531,1.27 0,0.549 -0.162,0.981 -0.469,1.296 -0.414,0.441 -1.089,0.666 -1.854,0.666 -0.233,0 -0.45,-0.009 -0.63,-0.054 v 2.431 h -0.783 z m 0.783,2.925 c 0.171,0.045 0.387,0.063 0.648,0.063 0.945,0 1.521,-0.459 1.521,-1.296 0,-0.801 -0.567,-1.188 -1.432,-1.188 -0.342,0 -0.604,0.027 -0.738,0.063 v 2.358 z"
       id="path2209"
       inkscape:connector-curvature="0"
       style="stroke:#231f20;stroke-width:0.75;stroke-miterlimit:10" /><path
       stroke-miterlimit="10"
       d="m 204.533,43.175 v 6.068 h -0.783 v -6.068 z"
       id="path2211"
       inkscape:connector-curvature="0"
       style="stroke:#231f20;stroke-width:0.75;stroke-miterlimit:10" /><path
       stroke-miterlimit="10"
       d="m 205.901,49.243 v -6.068 h 0.855 l 1.944,3.07 c 0.45,0.711 0.801,1.351 1.089,1.972 l 0.019,-0.009 c -0.072,-0.811 -0.09,-1.549 -0.09,-2.494 v -2.539 h 0.738 v 6.068 h -0.793 l -1.926,-3.079 c -0.424,-0.675 -0.829,-1.368 -1.135,-2.025 l -0.027,0.009 c 0.045,0.766 0.063,1.495 0.063,2.503 v 2.593 h -0.737 z"
       id="path2213"
       inkscape:connector-curvature="0"
       style="stroke:#231f20;stroke-width:0.75;stroke-miterlimit:10" /></g><g
     id="g2227"
     transform="translate(-0.277)"><path
       stroke-miterlimit="10"
       d="m 231.013,49.045 c -0.288,0.144 -0.864,0.288 -1.603,0.288 -1.71,0 -2.997,-1.08 -2.997,-3.07 0,-1.899 1.287,-3.187 3.169,-3.187 0.756,0 1.233,0.162 1.44,0.27 l -0.189,0.639 c -0.297,-0.144 -0.72,-0.252 -1.225,-0.252 -1.422,0 -2.367,0.909 -2.367,2.503 0,1.485 0.855,2.439 2.331,2.439 0.478,0 0.964,-0.099 1.278,-0.252 z"
       id="path2217"
       inkscape:connector-curvature="0"
       style="stroke:#231f20;stroke-width:0.75;stroke-miterlimit:10" /><path
       stroke-miterlimit="10"
       d="m 231.992,43.175 h 0.783 v 5.411 h 2.593 v 0.657 h -3.376 z"
       id="path2219"
       inkscape:connector-curvature="0"
       style="stroke:#231f20;stroke-width:0.75;stroke-miterlimit:10" /><path
       stroke-miterlimit="10"
       d="m 239.383,46.398 h -2.359 v 2.188 h 2.629 v 0.657 h -3.412 v -6.068 h 3.277 v 0.657 h -2.494 v 1.917 h 2.359 z"
       id="path2221"
       inkscape:connector-curvature="0"
       style="stroke:#231f20;stroke-width:0.75;stroke-miterlimit:10" /><path
       stroke-miterlimit="10"
       d="m 241.649,47.334 -0.63,1.909 h -0.811 l 2.062,-6.068 h 0.945 l 2.071,6.068 h -0.838 l -0.647,-1.909 z m 1.991,-0.611 -0.595,-1.747 C 242.91,44.58 242.82,44.22 242.73,43.869 h -0.018 c -0.09,0.36 -0.189,0.729 -0.306,1.098 l -0.595,1.756 z"
       id="path2223"
       inkscape:connector-curvature="0"
       style="stroke:#231f20;stroke-width:0.75;stroke-miterlimit:10" /><path
       stroke-miterlimit="10"
       d="m 246.177,43.256 c 0.396,-0.081 0.963,-0.126 1.503,-0.126 0.838,0 1.378,0.153 1.756,0.495 0.307,0.27 0.478,0.684 0.478,1.152 0,0.801 -0.505,1.333 -1.144,1.548 v 0.027 c 0.468,0.162 0.747,0.594 0.892,1.224 0.197,0.846 0.342,1.432 0.468,1.666 h -0.811 c -0.099,-0.171 -0.233,-0.693 -0.405,-1.449 -0.18,-0.837 -0.504,-1.152 -1.215,-1.18 h -0.738 v 2.629 h -0.783 v -5.986 z m 0.783,2.764 h 0.801 c 0.838,0 1.369,-0.459 1.369,-1.152 0,-0.783 -0.567,-1.125 -1.396,-1.134 -0.378,0 -0.648,0.036 -0.774,0.072 z"
       id="path2225"
       inkscape:connector-curvature="0"
       style="stroke:#231f20;stroke-width:0.75;stroke-miterlimit:10" /></g><rect
     style="fill:#6c6365"
     x="474.35007"
     y="180.33334"
     width="146.10899"
     height="8"
     id="rect2061-2" /><rect
     style="fill:#6c6365"
     x="322.25308"
     y="141.31035"
     width="50.049"
     height="8"
     id="rect2083-5" /></svg>