<?xml version="1.0" encoding="UTF-8" standalone="no"?>
<!-- Generator: Adobe Illustrator 16.0.0, SVG Export Plug-In . SVG Version: 6.00 Build 0)  -->

<svg
   xmlns:dc="http://purl.org/dc/elements/1.1/"
   xmlns:cc="http://creativecommons.org/ns#"
   xmlns:rdf="http://www.w3.org/1999/02/22-rdf-syntax-ns#"
   xmlns:svg="http://www.w3.org/2000/svg"
   xmlns="http://www.w3.org/2000/svg"
   xmlns:xlink="http://www.w3.org/1999/xlink"
   xmlns:sodipodi="http://sodipodi.sourceforge.net/DTD/sodipodi-0.dtd"
   xmlns:inkscape="http://www.inkscape.org/namespaces/inkscape"
   version="1.1"
   id="Layer_1"
   x="0px"
   y="0px"
   width="13.5px"
   height="13.5px"
   viewBox="0 0 13.5 13.5"
   enable-background="new 0 0 13.5 13.5"
   xml:space="preserve"
   inkscape:version="0.91 r13725"
   sodipodi:docname="BtnDwn_2.svg"><metadata
     id="metadata3520"><rdf:RDF><cc:Work
         rdf:about=""><dc:format>image/svg+xml</dc:format><dc:type
           rdf:resource="http://purl.org/dc/dcmitype/StillImage" /><dc:title></dc:title></cc:Work></rdf:RDF></metadata><defs
     id="defs3518" /><sodipodi:namedview
     pagecolor="#ffffff"
     bordercolor="#666666"
     borderopacity="1"
     objecttolerance="10"
     gridtolerance="10"
     guidetolerance="10"
     inkscape:pageopacity="0"
     inkscape:pageshadow="2"
     inkscape:window-width="1120"
     inkscape:window-height="921"
     id="namedview3516"
     showgrid="false"
     inkscape:zoom="59.481481"
     inkscape:cx="6.75"
     inkscape:cy="6.75"
     inkscape:window-x="0"
     inkscape:window-y="0"
     inkscape:window-maximized="0"
     inkscape:current-layer="Layer_1" /><g
     id="g3498"
     style="fill:#ffd42a"><defs
       id="defs3500"><rect
         id="SVGID_1_"
         width="13.5"
         height="13.5" /></defs><clipPath
       id="SVGID_2_"><use
         xlink:href="#SVGID_1_"
         overflow="visible"
         id="use3504" /></clipPath><path
       clip-path="url(#SVGID_2_)"
       fill="#282828"
       d="M0.489,2.121c-0.179,0-0.343,0.101-0.422,0.261   c-0.081,0.16-0.063,0.352,0.045,0.495l6.26,8.313c0.089,0.119,0.229,0.188,0.377,0.188c0.149,0,0.289-0.069,0.378-0.188   l6.261-8.313c0.107-0.143,0.126-0.335,0.045-0.495c-0.079-0.16-0.243-0.261-0.422-0.261H0.489z"
       id="path3506"
       style="fill:#ffd42a" /><path
       clip-path="url(#SVGID_2_)"
       d="M0.807,2.546c-0.097,0-0.188,0.056-0.232,0.143C0.532,2.777,0.542,2.881,0.6,2.959l5.943,7.893   c0.048,0.064,0.126,0.103,0.207,0.103c0.08,0,0.158-0.038,0.206-0.104l5.942-7.892c0.061-0.078,0.069-0.182,0.024-0.271   c-0.043-0.086-0.133-0.142-0.23-0.142H0.807z"
       id="path3508"
       style="fill:#ffd42a" /><path
       clip-path="url(#SVGID_2_)"
       fill="#3C3C3C"
       d="M2.101,3.025c-0.133,0-0.254,0.077-0.314,0.199   C1.728,3.346,1.741,3.492,1.821,3.601L6.47,9.934c0.065,0.092,0.17,0.145,0.28,0.145s0.214-0.053,0.279-0.145l4.65-6.333   c0.08-0.109,0.093-0.255,0.033-0.377s-0.182-0.199-0.314-0.199H2.101z"
       id="path3510"
       style="fill:#ffd42a" /><path
       clip-path="url(#SVGID_2_)"
       fill="#282828"
       d="M2.15,3.199c-0.132,0-0.253,0.075-0.312,0.194   C1.779,3.512,1.792,3.655,1.871,3.761l4.626,6.177c0.065,0.089,0.169,0.141,0.278,0.141c0.11,0,0.213-0.052,0.279-0.141   l4.625-6.177c0.08-0.106,0.093-0.249,0.033-0.368c-0.059-0.119-0.18-0.194-0.312-0.194H2.15z"
       id="path3512"
       style="fill:#ffd42a" /><path
       clip-path="url(#SVGID_2_)"
       fill="#DCDCDC"
       d="M4.913,6.055c-0.274,0-0.488-0.222-0.488-0.504c0-0.27,0.219-0.489,0.488-0.489   h3.673c0.271,0,0.489,0.219,0.489,0.489c0,0.282-0.215,0.504-0.489,0.504H4.913z"
       id="path3514"
       style="fill:#ffd42a" /></g></svg>